PathFileType	4	(X/Y/Z)	Walk6.trc
DataRate	CameraRate	NumFrames	NumMarkers	Units	OrigDataRate	OrigDataStartFrame	OrigNumFrames
200.000000	200.000000	6	59	mm	200.000000	186	500
Frame#	Times		LFHD		LBHD		C7		T10		RBack		LPSI		RPSI		RElbowM		RCAR		LUA1		LElbowM		LLFC		LCAR		RUA1		RFA1		RWRR		CLAV		LACR1		RTH3		RTB1		LWRU		RBHD		RACR1		RTB4		LFA1		LWRR		RTH2		RTB3		RToe		RElbow		RMT1		STRN		RWRU		RFHD		RTH4		RLFC		RCAL		RMT5		RTH1		RTB2		LTH3		LTH4		RMMAL		LTH1		LElbow		LTH2		LTB3		RLMAL		LTB2		RASI		LCAL		LMT1		LASI		LLMAL		LMT5		LToe		LTB1		LMMAL		LTB4
			X1	Y1	Z1	X2	Y2	Z2	X3	Y3	Z3	X4	Y4	Z4	X5	Y5	Z5	X6	Y6	Z6	X7	Y7	Z7	X8	Y8	Z8	X9	Y9	Z9	X10	Y10	Z10	X11	Y11	Z11	X12	Y12	Z12	X13	Y13	Z13	X14	Y14	Z14	X15	Y15	Z15	X16	Y16	Z16	X17	Y17	Z17	X18	Y18	Z18	X19	Y19	Z19	X20	Y20	Z20	X21	Y21	Z21	X22	Y22	Z22	X23	Y23	Z23	X24	Y24	Z24	X25	Y25	Z25	X26	Y26	Z26	X27	Y27	Z27	X28	Y28	Z28	X29	Y29	Z29	X30	Y30	Z30	X31	Y31	Z31	X32	Y32	Z32	X33	Y33	Z33	X34	Y34	Z34	X35	Y35	Z35	X36	Y36	Z36	X37	Y37	Z37	X38	Y38	Z38	X39	Y39	Z39	X40	Y40	Z40	X41	Y41	Z41	X42	Y42	Z42	X43	Y43	Z43	X44	Y44	Z44	X45	Y45	Z45	X46	Y46	Z46	X47	Y47	Z47	X48	Y48	Z48	X49	Y49	Z49	X50	Y50	Z50	X51	Y51	Z51	X52	Y52	Z52	X53	Y53	Z53	X54	Y54	Z54	X55	Y55	Z55	X56	Y56	Z56	X57	Y57	Z57	X58	Y58	Z58	X59	Y59	Z59

186	0.93	-597.58	1463.4	-12.683	-770.6	1468.8	-27.327	-798.21	1331.1	40.08	-827.68	1062.9	27.621	-821.61	1226.3	167.74	-845.29	867.13	-22.784	-857.84	887.94	73.399	-721.43	922.55	234.44	-517.06	759.99	321.52	-728.42	1099.9	-214.6	-795.87	947.19	-172.51	-543.02	450.8	-98.566	-634.98	716.19	-279.8	-693.6	1114.1	269.97	-637.01	853.46	311.76	-512.82	805.69	276.88	-672.42	1252.5	41.258	-720.37	1268.7	-126.48	-801.16	545	194.18	-835.3	320.1	87.504	-687.34	752.17	-296.95	-767.52	1475	96.41	-724.4	1266.8	191.33	-876.19	237.47	87.879	-734.22	867.37	-272.13	-652.11	752.19	-233.35	-704.25	622.1	191.32	-906.17	148.77	81.727	-824.18	24.713	60.343	-685.74	972.08	309.68	-880.56	45.309	55.645	-610.23	1147.9	37.895	-572.35	762.79	290.77	-589.66	1471.1	64.609	-776.02	633.5	219.79	-816.87	445.58	174.15	-1030.6	72.455	104.96	-898.14	37.21	113.91	-750.62	715.01	248.23	-896.13	242.4	155.59	-562.32	560.67	-108.95	-604.38	642.65	-134.18	-965.8	90.522	45.199	-651.48	720.79	-158.64	-770.01	986.36	-238.2	-553.64	683.83	-99.938	-424.62	183.98	-11.053	-964.52	80.69	125.66	-481.41	260.16	-82.792	-673.48	883.58	175.87	-468.84	28.014	-10.163	-327.56	89.857	-10.444	-691.8	851.48	-123.66	-439.4	74.445	-53.086	-345.35	68.192	-63.612	-277.44	89.148	-25.855	-473.55	359.47	-19.774	-420.19	85.815	23.138	-457.75	268.86	-16.109
187	0.935	-591.95	1463.1	-13.594	-764.95	1468.6	-28.392	-792.56	1330.7	38.953	-821.44	1062.4	26.949	-815.83	1226	166.72	-838.79	867.06	-23.445	-851.53	887.73	72.706	-715.78	922.51	233.68	-511.49	759.81	320.82	-722.81	1099.3	-215.36	-790.36	946.67	-172.82	-536.6	450.59	-98.199	-630.25	715.27	-280.3	-687.89	1114	269.1	-631.36	853.37	311	-507.2	805.53	276.1	-666.61	1252.4	40.259	-714.61	1268.2	-127.51	-796.01	544.71	193.96	-831.38	319.87	87.255	-682.57	751.34	-297.37	-761.95	1474.8	95.315	-718.72	1266.8	190.42	-873.32	237.78	87.702	-729.18	866.63	-272.54	-647.15	751.39	-233.81	-698.99	621.57	191.37	-904.39	149.41	81.627	-824.18	24.696	60.189	-680.01	972.03	308.86	-880.16	45.489	55.554	-604.25	1147.9	37.013	-566.74	762.65	290.02	-584.09	1470.8	63.658	-770.8	633.19	219.57	-811.86	445.31	173.9	-1029.7	74.765	105	-897.76	37.516	113.84	-745.37	714.68	247.97	-893.15	242.87	155.41	-555.7	560.58	-108.71	-597.65	642.59	-133.98	-964.73	91.893	45.223	-644.57	720.78	-158.61	-764.68	985.72	-238.64	-546.73	683.74	-100.01	-421.23	182.45	-10.373	-963.51	82.346	126.18	-477.15	259.2	-82.145	-661.48	883.66	175.41	-467.65	27.671	-9.8608	-325.33	86.787	-9.2896	-681.73	851.45	-123.71	-437.38	73.233	-52.468	-343.37	65.394	-62.555	-274.91	85.01	-24.46	-468.19	358.47	-19.275	-418.18	84.166	23.811	-453.34	267.71	-15.529
188	0.94	-586.3	1463	-14.523	-759.29	1468.5	-29.482	-786.89	1330.4	37.808	-815.16	1062	26.284	-810.03	1225.8	165.68	-832.26	867.06	-24.083	-845.18	887.59	72.045	-710.2	922.55	232.91	-506.05	759.65	320.13	-717.16	1098.7	-216.13	-784.8	946.2	-173.13	-530.37	450.4	-97.857	-625.47	714.39	-280.78	-682.17	1114.1	268.21	-625.8	853.34	310.24	-501.67	805.38	275.36	-660.78	1252.3	39.241	-708.85	1267.8	-128.57	-790.69	544.45	193.72	-827.32	319.7	87.007	-677.76	750.55	-297.77	-756.36	1474.6	94.194	-713.01	1266.8	189.5	-870.33	238.17	87.522	-724.09	865.95	-272.93	-642.16	750.63	-234.25	-693.6	621.13	191.38	-902.49	150.15	81.53	-824.19	24.673	60.03	-674.34	972.05	308.02	-879.71	45.681	55.459	-598.23	1147.9	36.101	-561.24	762.54	289.28	-578.5	1470.7	62.695	-765.46	632.91	219.33	-806.67	445.06	173.69	-1028.7	77.248	105.02	-897.34	37.855	113.76	-740	714.39	247.68	-890.02	243.43	155.24	-549.19	560.52	-108.47	-590.94	642.61	-133.76	-963.55	93.377	45.248	-637.59	720.89	-158.56	-759.28	985.12	-239.07	-539.81	683.68	-100.04	-417.97	181	-9.7424	-962.41	84.141	126.73	-473.03	258.32	-81.538	-649.42	883.75	174.96	-466.62	27.471	-9.6246	-323.25	83.759	-8.189	-670.42	851.41	-123.78	-435.48	72.125	-51.908	-341.54	62.63	-61.531	-272.51	80.86	-23.101	-462.98	357.54	-18.824	-416.29	82.607	24.43	-449.07	266.65	-14.998
189	0.945	-580.65	1462.9	-15.469	-753.62	1468.5	-30.595	-781.2	1330.2	36.648	-808.84	1061.7	25.626	-804.19	1225.6	164.63	-825.7	867.16	-24.695	-838.8	887.53	71.418	-704.68	922.66	232.13	-500.72	759.51	319.46	-711.48	1098.2	-216.9	-779.19	945.8	-173.44	-524.35	450.26	-97.553	-620.65	713.57	-281.23	-676.44	1114.1	267.3	-620.33	853.37	309.48	-496.24	805.25	274.63	-654.93	1252.3	38.205	-703.07	1267.4	-129.65	-785.2	544.21	193.45	-823.1	319.59	86.766	-672.92	749.81	-298.14	-750.77	1474.5	93.051	-707.27	1267	188.58	-867.19	238.64	87.343	-718.96	865.31	-273.31	-637.13	749.91	-234.69	-688.09	620.8	191.37	-900.47	150.99	81.438	-824.22	24.643	59.866	-668.74	972.13	307.17	-879.22	45.888	55.356	-592.18	1148.1	35.161	-555.85	762.45	288.55	-572.91	1470.6	61.721	-759.97	632.67	219.08	-801.28	444.85	173.51	-1027.6	79.914	105.01	-896.88	38.229	113.68	-734.52	714.16	247.36	-886.74	244.06	155.09	-542.82	560.48	-108.23	-584.27	642.72	-133.51	-962.23	94.979	45.273	-630.56	721.14	-158.5	-753.83	984.59	-239.49	-532.9	683.62	-100.03	-414.83	179.67	-9.1707	-961.19	86.073	127.32	-469.02	257.54	-80.987	-637.33	883.84	174.51	-465.7	27.416	-9.4613	-321.27	80.809	-7.1596	-658.06	851.34	-123.86	-433.66	71.138	-51.421	-339.83	59.94	-60.558	-270.21	76.747	-21.794	-457.92	356.71	-18.424	-414.47	81.166	24.981	-444.93	265.7	-14.523
190	0.95	-574.98	1462.9	-16.432	-747.94	1468.6	-31.728	-775.49	1330.1	35.473	-802.5	1061.4	24.977	-798.33	1225.5	163.57	-819.12	867.35	-25.281	-832.4	887.55	70.831	-699.23	922.86	231.35	-495.53	759.39	318.82	-705.75	1097.8	-217.68	-773.53	945.48	-173.75	-518.55	450.15	-97.3	-615.79	712.81	-281.67	-670.7	1114.3	266.37	-614.97	853.45	308.73	-490.91	805.12	273.94	-649.06	1252.3	37.152	-697.28	1267.1	-130.74	-779.52	543.99	193.15	-818.72	319.54	86.54	-668.04	749.13	-298.5	-745.18	1474.6	91.886	-701.51	1267.2	187.65	-863.9	239.19	87.171	-713.78	864.74	-273.66	-632.07	749.24	-235.11	-682.43	620.56	191.33	-898.3	151.93	81.355	-824.26	24.606	59.697	-663.19	972.28	306.3	-878.67	46.11	55.243	-586.1	1148.3	34.197	-550.57	762.39	287.84	-567.31	1470.6	60.736	-754.34	632.47	218.8	-795.67	444.68	173.39	-1026.3	82.772	104.94	-896.38	38.639	113.59	-728.91	713.97	247.01	-883.28	244.77	154.96	-536.6	560.49	-108.01	-577.65	642.91	-133.26	-960.75	96.704	45.295	-623.5	721.52	-158.43	-748.31	984.11	-239.91	-526.01	683.59	-99.991	-411.79	178.47	-8.6648	-959.86	88.139	127.91	-465.09	256.87	-80.509	-625.23	883.95	174.07	-464.86	27.495	-9.3733	-319.37	77.97	-6.2165	-644.86	851.26	-123.94	-431.9	70.282	-51.019	-338.2	57.354	-59.653	-267.99	72.711	-20.554	-453	355.98	-18.077	-412.71	79.86	25.457	-440.9	264.86	-14.108
191	0.955	-569.3	1463.1	-17.41	-742.25	1468.7	-32.881	-769.75	1330.1	34.287	-796.14	1061.3	24.336	-792.45	1225.6	162.49	-812.52	867.63	-25.838	-825.98	887.66	70.288	-693.84	923.15	230.56	-490.46	759.3	318.2	-699.98	1097.4	-218.45	-767.82	945.23	-174.06	-512.94	450.11	-97.112	-610.89	712.11	-282.09	-664.95	1114.5	265.41	-609.69	853.61	307.99	-485.69	805.01	273.27	-643.17	1252.5	36.084	-691.48	1266.9	-131.86	-773.65	543.81	192.84	-814.15	319.54	86.341	-663.12	748.51	-298.83	-739.57	1474.7	90.703	-695.73	1267.5	186.72	-860.42	239.83	87.013	-708.54	864.23	-273.99	-626.98	748.63	-235.52	-676.62	620.44	191.28	-895.96	152.98	81.285	-824.31	24.561	59.524	-657.7	972.5	305.41	-878.07	46.35	55.118	-579.99	1148.7	33.21	-545.41	762.36	287.14	-561.7	1470.7	59.741	-748.57	632.32	218.52	-789.84	444.53	173.34	-1024.8	85.83	104.83	-895.83	39.088	113.5	-723.18	713.84	246.65	-879.66	245.58	154.86	-530.53	560.55	-107.81	-571.11	643.2	-133	-959.1	98.557	45.316	-616.42	722.03	-158.34	-742.72	983.7	-240.32	-519.16	683.6	-99.919	-408.86	177.39	-8.2288	-958.38	90.338	128.5	-461.22	256.32	-80.117	-613.14	884.07	173.63	-464.08	27.693	-9.3584	-317.56	75.263	-5.3709	-631.09	851.17	-124.04	-430.18	69.554	-50.709	-336.65	54.893	-58.827	-265.86	68.784	-19.393	-448.22	355.36	-17.783	-411	78.695	25.85	-437	264.13	-13.757
